<?xml version="1.0" standalone="no"?>
<!DOCTYPE svg PUBLIC "-//W3C//DTD SVG 1.1//EN" "http://www.w3.org/Graphics/SVG/1.1/DTD/svg11.dtd" >
<svg>
<metadata>
Created by FontForge 20090622 at Tue Nov  5 11:45:50 2019
 By deploy user
&#194;&#169;2002 stefan claudius cape&#226;&#128;&#144;arcona.com
</metadata>
<defs>
<font id="CAAires" horiz-adv-x="625" >
  <font-face 
    font-family="CA Aires"
    font-weight="400"
    font-stretch="normal"
    units-per-em="1000"
    panose-1="0 0 4 0 0 0 0 0 0 0"
    ascent="800"
    descent="-200"
    x-height="689"
    cap-height="700"
    bbox="-45 -90.1176 728 843"
    underline-thickness="20"
    underline-position="-123"
    unicode-range="U+0020-U+00FC"
  />
<missing-glyph horiz-adv-x="500" 
d="M63 0v800h375v-800h-375zM125 63h250v675h-250v-675z" />
    <glyph glyph-name=".notdef" horiz-adv-x="500" 
d="M63 0v800h375v-800h-375zM125 63h250v675h-250v-675z" />
    <glyph glyph-name="glyph1" horiz-adv-x="0" 
 />
    <glyph glyph-name="nonmarkingreturn" horiz-adv-x="333" 
 />
    <glyph glyph-name="space" unicode=" " horiz-adv-x="333" 
 />
    <glyph glyph-name="exclam" unicode="!" horiz-adv-x="323" 
d="M144 648l-15 -419q-2 -32 -34 -33l-44 -1q-32 -1 -34 31l-16 422q-1 13 8 22.5t22 9.5h82q13 0 22 -9.5t9 -22.5zM141 11q0 -31 -31 -31h-66q-31 0 -35 27.5t-1 58.5l2 17q3 31 34 31h66q31 0 31 -31v-72z" />
    <glyph glyph-name="quotedbl" unicode="&#x22;" horiz-adv-x="430" 
d="M251 692l-6 -66q-3 -25 -10 -50l-13 -40q-7 -25 -27 -26q-8 -1 -13 6.5t-4 17.5l4 43q2 19 -16 27.5t-18 28.5v59q0 25 26 27l13 1q26 2 46 0q21 -3 18 -28zM111 692l-6 -66q-3 -25 -10 -50l-13 -40q-7 -25 -27 -26q-8 -1 -13 6.5t-4 17.5l4 43q2 19 -16 27.5t-18 28.5
v59q0 25 26 27l13 1q26 2 46 0q21 -3 18 -28z" />
    <glyph glyph-name="quotesingle" unicode="'" horiz-adv-x="300" 
d="M121 692l-6 -66q-3 -25 -10 -50l-13 -40q-7 -25 -27 -26q-8 -1 -13 6.5t-4 17.5l4 43q2 19 -16 27.5t-18 28.5v59q0 25 26 27l13 1q26 2 46 0q21 -3 18 -28z" />
    <glyph glyph-name="parenleft" unicode="(" horiz-adv-x="365" 
d="M191 -20h-11q-109 0 -155 87q-19 36 -25 87q-10 286 7 430q6 5 184 135v-113q-63 -2 -63 -79v-341q0 -33 16.5 -57.5t46.5 -30.5v-118z" />
    <glyph glyph-name="parenright" unicode=")" horiz-adv-x="373" 
d="M191 154q-5 -51 -25 -87q-46 -87 -155 -87h-11v118q30 6 46.5 30.5t16.5 57.5v331q0 77 -63 79v113h1q103 8 154 -62q20 -30 29 -73q17 -142 7 -420z" />
    <glyph glyph-name="comma" unicode="," horiz-adv-x="307" 
d="M121 92l-6 -66q-3 -25 -10 -50l-13 -40q-7 -25 -27 -26q-8 -1 -13 6.5t-4 17.5l4 43q2 19 -16 27.5t-18 28.5v59q0 25 26 27l13 1q26 2 46 0q21 -3 18 -28z" />
    <glyph glyph-name="hyphen" unicode="-" horiz-adv-x="448" 
d="M267 322q0 -31 -22 -33.5t-53 -1.5l-164 4q-30 0 -30 31v52q0 30 24.5 33t55.5 2l158 -4q31 -1 31 -31v-52z" />
    <glyph glyph-name="hyphen" unicode="&#x2010;" horiz-adv-x="448" 
d="M267 322q0 -31 -22 -33.5t-53 -1.5l-164 4q-30 0 -30 31v52q0 30 24.5 33t55.5 2l158 -4q31 -1 31 -31v-52z" />
    <glyph glyph-name="period" unicode="." horiz-adv-x="309" 
d="M127 34q0 -30 -22 -33t-52 -1l-22 1q-31 3 -31 33v72q0 31 25 33.5t55 0.5l17 -1q30 -2 30 -33v-72z" />
    <glyph glyph-name="slash" unicode="/" horiz-adv-x="442" 
d="M274 648l-155 -619q-8 -32 -34 -33l-44 -1q-14 -1 -25 8.5t-9 22.5l144 622q7 32 30 32h62q14 0 24 -10t7 -22z" />
    <glyph glyph-name="zero" unicode="0" 
d="M446 174q-6 -121 -101 -170q-39 -20 -93 -24h-49q-125 0 -179 100q-22 42 -28 100q-8 220 8 354q10 49 34 83q58 81 177 72q130 9 189 -88q25 -40 34 -98q10 -150 10 -259q0 -40 -2 -70zM306 218q1 49 0 107q-1 60 -11 157q-24 82 -76 76q-76 0 -76 -91v-250
q0 -43 23 -71q25 -31 67 -31q73 0 73 103z" />
    <glyph glyph-name="one" unicode="1" horiz-adv-x="393" 
d="M210 21q5 -38 -41 -41h-47q-44 0 -48 47v490q0 6 -42 7h-43q-34 0 -34 5v56q0 29 46 47q25 8 179 48q27 1 30 -35v-624z" />
    <glyph glyph-name="two" unicode="2" horiz-adv-x="606" 
d="M448 497q0 -65 -29 -110q-36 -54 -129 -109q-138 -80 -138 -186h282v-60q-6 -20 -24 -39q-14 -13 -28 -13q-5 0 -9 1h-376v111q19 165 140 248q94 66 127 96q41 37 41 65q0 23 -18.5 40.5t-41.5 17.5q-64 0 -128 -85q-5 -7 -12 -7t-13.5 6.5t-62.5 74.5q-6 8 -6 17t6 16
q100 99 203 99q19 0 38 -3q91 -16 137 -69q41 -46 41 -111z" />
    <glyph glyph-name="three" unicode="3" horiz-adv-x="646" 
d="M469 215q7 -25 7 -49q0 -106 -108 -161q-48 -25 -119 -25q-77 0 -149.5 25t-90.5 56q-10 18 -8 30q29 65 42 86q6 9 14 9q5 0 10 -4q34 -36 85 -59t96 -23q59 0 85 40q11 16 11 35q0 32 -29.5 61.5t-78.5 45.5v0q-49 -20 -69 -20q-13 0 -13 7l-5 115l87 32q58 27 58 75
q0 28 -23.5 46.5t-52.5 18.5q-57 0 -118 -58q-5 -5 -11 -5q-7 0 -13 7.5t-48 82.5q-4 7 -4 13q0 11 9 18q92 66 176 66q36 0 70 -12q145 -51 145 -171q0 -88 -63 -143q87 -50 108 -139z" />
    <glyph glyph-name="four" unicode="4" horiz-adv-x="693" 
d="M520 154q0 -2 -30 -6.5t-30 -7.5v-93q0 -48 -4 -53q-9 -13 -63 -13l-44 -1q-36 -3 -38 25v135h-302v119q0 30 31 60l270 358q0 3 47 3h76q25 3 27 -42v-380q0 -3 22 -3q32 1 30 1q8 -1 8 -3v-99zM313 258v260l-163 -260h163z" />
    <glyph glyph-name="five" unicode="5" horiz-adv-x="643" 
d="M476 182q0 -100 -66 -154q-59 -48 -151 -48q-83 0 -161 23q-70 21 -96 47q55 83 72 103q100 -45 144 -48q123 0 123 78q0 80 -39 110q-17 13 -52 13q-18 0 -53 -5q-43 -5 -58 -6q-112 -6 -112 4q-1 34 -5 337q0 41 60 44h355q-2 -75 -2 -126h-289v-142q56 12 110 12
q47 0 80 -9q61 -16 99 -76q41 -64 41 -157z" />
    <glyph glyph-name="six" unicode="6" 
d="M463 219q0 -132 -77 -194q-56 -45 -140 -45q-57 0 -114 27q-44 21 -72 49q-61 60 -61 235q0 180 85 287q42 53 97 79q14 6 29 11q37 11 75 12l42 -98q-90 -1 -145 -80q-32 -56 -32 -96q0 -16 6 -27q39 35 106 35q35 0 67 -9q47 -14 80 -45q54 -53 54 -141zM302 137
q19 19 19 70q0 49 -24 73q-19 19 -55 19q-39 0 -60 -21t-21 -74q0 -49 24 -73q19 -19 51 -19q41 0 66 25z" />
    <glyph glyph-name="seven" unicode="7" horiz-adv-x="566" 
d="M397 645l-140 -624q-3 -38 -48 -41h-45q-42 0 -45 47q0 18 56 211q64 219 81 303q1 6 -109 6h-65q-95 0 -94 5l5 85q0 37 35 40q69 0 329 3q38 0 40 -35z" />
    <glyph glyph-name="eight" unicode="8" horiz-adv-x="593" 
d="M419 214q0 -129 -76 -190q-56 -44 -138 -44q-65 0 -120 30q-58 31 -79 85q-14 39 -14 96q0 109 67 167q-19 20 -28 44q-13 34 -13 85q0 115 82 163q49 30 94 30q34 0 75 -13q113 -34 113 -160q0 -86 -37 -138q74 -52 74 -155zM247 436q16 16 16 60q0 43 -21 64
q-15 16 -45 16q-33 0 -50.5 -18t-17.5 -64q0 -42 20 -62q16 -17 43 -17q34 0 55 21zM260 134q19 18 19 69q0 48 -24 71q-19 19 -54 19q-38 0 -58.5 -20.5t-20.5 -72.5q0 -48 23 -71q19 -20 50 -20q41 0 65 25z" />
    <glyph glyph-name="nine" unicode="9" horiz-adv-x="631" 
d="M454 374q0 -266 -179 -370q-48 -24 -149 -24q-24 0 -49 2l-3 104q22 -5 43 -5q95 0 157 86q32 53 32 93q0 16 -6 28q-39 -34 -104 -34q-35 0 -66 8q-132 39 -132 184q0 129 75 190q56 44 138 44q56 0 112 -26q44 -21 71 -48q60 -60 60 -232zM295 459q0 49 -23 72
q-19 19 -51 19q-40 0 -65 -24q-18 -19 -18 -69q0 -48 24 -72q18 -18 54 -18q38 0 58.5 20.5t20.5 71.5z" />
    <glyph glyph-name="colon" unicode=":" horiz-adv-x="303" 
d="M125 301q0 -30 -22 -33q-21 -2 -51 0l-22 1q-30 2 -30 32v70q0 30 24.5 33t54.5 1l16 -2q30 -2 30 -32v-70zM128 30q0 -30 -31 -30h-64q-30 0 -33.5 26.5t-1.5 56.5l2 17q3 30 33 30h64q31 0 31 -30v-70z" />
    <glyph glyph-name="semicolon" unicode=";" horiz-adv-x="297" 
d="M121 318q0 -26 -18.5 -28t-43.5 -1l-18 1q-26 2 -26 28v59q0 25 21 28q20 2 46 0l13 -1q26 -2 26 -27v-59zM121 92l-6 -66q-3 -25 -10 -50l-13 -40q-7 -25 -27 -26q-8 -1 -13 6.5t-4 17.5l4 43q2 19 -16 27.5t-18 28.5v59q0 25 25 27l14 1q25 2 46 0q21 -3 18 -28z" />
    <glyph glyph-name="question" unicode="?" horiz-adv-x="653" 
d="M483 578q13 -34 13 -85q0 -99 -58 -155q-28 -27 -63 -38q-23 -6 -46 -11q-60 -18 -60 -95q0 -8 1 -33h-118q-12 6 -13 30q0 149 116 184q65 19 97 52q19 18 19 55q0 46 -28 74t-98 28q-86 0 -119 -47l-121 33q41 130 247 130q71 0 137 -31q73 -35 94 -91zM270 10
q0 -30 -30 -30h-63q-29 0 -32.5 26t-1.5 56l2 16q3 30 32 30h63q30 0 30 -30v-68zM270 10q0 -30 -30 -30h-63q-29 0 -32.5 26t-1.5 56l2 16q3 30 32 30h63q30 0 30 -30v-68z" />
    <glyph glyph-name="at" unicode="@" horiz-adv-x="829" 
d="M651 305q-2 -145 -19 -209q-28 -102 -106 -104t-104 51q-13 24 -14 74v27q-16 -23 -45 -30q-21 -5 -72 -5q-60 0 -95 38q-33 33 -33 82q0 84 44 116q54 41 207 39v9q0 33 -13 48q-21 21 -78 21q-46 0 -89 -19q-15 -5 -25 6l-16 60q57 36 138 36q169 0 169 -170v-155
q0 -11 -3 -56q-2 -34 1 -50q1 -35 26 -37q27 2 27 135q0 47 -3 105q-8 131 -29 177q-48 101 -192 101q-130 0 -177 -99q-28 -58 -32 -186q1 -74 15 -126q33 -125 127 -125q17 0 36 4l-4 -71q0 -12 -11 -12q-105 2 -154 34q-39 26 -66 102q-30 83 -28 191q3 162 44 242
q67 127 245 131q199 4 278 -132q52 -90 51 -243zM417 296q-6 9 -10 10q-46 1 -54 1q-54 0 -80 -12q-34 -16 -34 -57q0 -34 23 -46q15 -8 50 -8q83 0 102 56q2 5 2 19z" />
    <glyph glyph-name="A" unicode="A" horiz-adv-x="603" 
d="M431 44q1 -5 1 -9q0 -28 -37 -31h-68q-32 4 -38 29q-3 10 -6 35h-147l-2 -40q-5 -26 -26 -28h-88q-31 0 -26 39q2 18 109 633q5 26 27 27h127q24 7 35 -35q7 -21 139 -620zM253 206l-38 213q0 10 -11 10q-12 0 -12 -11q-7 -71 -28 -211q-4 -27 18 -23h49q23 1 23 15
q0 3 -1 7z" />
    <glyph glyph-name="B" unicode="B" horiz-adv-x="666" 
d="M492 182q0 -99 -47 -146q-36 -36 -92 -36q-77 1 -285 0q-57 0 -61 46q0 23 -3 608q0 43 62 46q75 5 242 0q105 -3 147 -93q17 -38 20 -89q-6 -171 -86 -162q95 -25 103 -174zM307 490q-4 80 -60 80h-102l2 -157h90q70 0 70 77zM317 200q-3 81 -54 81h-112l2 -163h90
q74 0 74 82z" />
    <glyph glyph-name="C" unicode="C" horiz-adv-x="598" 
d="M441 152q-34 -162 -190 -162h-49q-125 0 -179 100q-22 42 -28 100q-7 212 8 344q10 49 34 83q58 81 177 72q117 8 180 -74q26 -35 39 -84q4 -18 -2 -28q-2 -5 -19 -10l-117 -19l-1 8q-24 82 -76 76q-76 0 -76 -91v-240q0 -43 23 -71q25 -31 67 -31q61 0 71 77l118 -21
q10 0 16 -9t4 -20z" />
    <glyph glyph-name="D" unicode="D" horiz-adv-x="656" 
d="M466 173q-22 -173 -140 -173q-75 1 -260 0q-57 0 -61 46q0 23 -3 608q0 43 62 46q74 1 230 0q88 -1 136 -92q20 -37 31 -90q19 -124 19 -184q0 -48 -14 -161zM331 367q0 48 -11 116q-5 25 -16 43q-27 44 -75 49q-45 0 -79 -1v-444q44 -1 92 -1q69 -1 80 102q9 88 9 136z
" />
    <glyph glyph-name="E" unicode="E" horiz-adv-x="588" 
d="M432 41q7 -38 -41 -41h-356q-38 0 -41 41v31v168q1 430 1 412q-7 45 47 48h345q31 0 33 -34v-101h-277v-141h181q17 -19 17 -67q0 -35 -9 -75h-185v-152h285v-89z" />
    <glyph glyph-name="F" unicode="F" horiz-adv-x="566" 
d="M418 555h-278v-141h181q17 -19 17 -67q0 -35 -9 -75h-185v-282h-112q-38 0 -41 41v31q1 55 1 168q1 431 1 412q-8 45 46 48h345q31 0 34 -34v-101z" />
    <glyph glyph-name="G" unicode="G" horiz-adv-x="629" 
d="M461 268q-1 -61 -22 -145v0q-41 -143 -185 -143h-49q-125 0 -179 100q-22 42 -28 100q-8 219 8 354q10 49 34 83q58 81 177 72q117 8 180 -74q26 -35 39 -84q4 -18 -2 -28q-2 -5 -19 -10l-117 -19l-1 8q-24 82 -76 76q-76 0 -76 -91v-250q0 -43 23 -71q25 -31 67 -31
q58 0 70 71v0l8 73h-84v87q-2 15 16 16h198q17 2 18 -18q1 -25 0 -76z" />
    <glyph glyph-name="H" unicode="H" horiz-adv-x="630" 
d="M448 57q0 -48 -4 -54q-9 -13 -64 -13h-43q-17 0 -39 13v267h-162v-277h-102q-35 -4 -37 37q-7 83 0 613v29q0 18 47 18h77q6 0 16 -3v-299h163v299h109q20 0 33 -8q6 -5 6 -31v-591z" />
    <glyph glyph-name="I" unicode="I" horiz-adv-x="317" 
d="M134 41q6 -38 -41 -41h-46q-44 0 -48 47q2 96 0 606q0 44 47 47h58q28 1 30 -35v-624z" />
    <glyph glyph-name="J" unicode="J" horiz-adv-x="606" 
d="M425 667l-1 -541q0 -93 -103 -129q-43 -15 -104 -17q-216 3 -216 142v61q0 6 17 17l104 13v-27q0 -70 85 -75q78 7 78 104v345h-259v80q0 26 8 33t23 7l333 -2q35 -4 35 -11z" />
    <glyph glyph-name="K" unicode="K" horiz-adv-x="656" 
d="M509 19q-1 -4 -2 -7q-4 -8 -14 -9l-109 -2q-6 1 -10 3q-12 5 -18 19l-198 281v-304h-103q-54 3 -46 47l-2 606q3 40 41 40h111v-275q152 219 166 250.5t40 31.5q5 0 11 -1h105q12 -1 12 -11q0 -8 -12 -24l-188 -295l206 -326q9 -9 10 -24z" />
    <glyph glyph-name="L" unicode="L" horiz-adv-x="490" 
d="M341 27q-1 -27 -16 -27q-3 0 -7 2l-268 1q-44 0 -47 47q1 96 0 604q0 43 46 46h58q28 1 30 -35v-545h204v-93z" />
    <glyph glyph-name="M" unicode="M" horiz-adv-x="871" 
d="M687 33q-2 -41 -37 -38h-88q-8 0 -11 2.5t-2 5.5v362l-117 -303q-32 -76 -58 -71h-43q-42 -8 -72 71q-10 28 -114 303v-350q1 -8 -5.5 -14.5t-17.5 -5.5h-78q-35 -3 -38 38v610q0 33 7 40t40 7q11 -2 77 0q34 1 61 -47q47 -147 156 -457q32 88 94 277q54 164 62 180
q26 48 61 47q66 -2 76 0q49 -3 49 -37q0 -5 -2 -10v-610z" />
    <glyph glyph-name="N" unicode="N" horiz-adv-x="629" 
d="M447 59q6 -63 -69 -68l-43 -1q-43 -7 -81 72q-12 27 -118 303v-370h-101q-35 -4 -37 38v610q-1 5 -1 10q0 34 48 37q10 -2 76 0q35 1 61 -47q14 -30 118 -286v330h108q36 0 39 -39v-589z" />
    <glyph glyph-name="O" unicode="O" 
d="M446 174q-6 -121 -101 -170q-39 -20 -93 -24h-49q-125 0 -179 100q-22 42 -28 100q-8 220 8 354q10 49 34 83q58 81 177 72q130 9 189 -88q25 -40 34 -98q10 -150 10 -259q0 -40 -2 -70zM306 218q1 49 0 107q-1 60 -11 157q-24 82 -76 76q-76 0 -76 -91v-250
q0 -43 23 -71q25 -31 67 -31q73 0 73 103z" />
    <glyph glyph-name="P" unicode="P" horiz-adv-x="574" 
d="M420 498q0 -96 -58 -154q-41 -40 -87 -47q-22 -3 -150 -8l2 -289h-96q-36 0 -39 38v630q-4 29 32 32q45 -4 162 0q147 4 205 -98q25 -43 29 -104zM278 487q0 50 -37 62q-30 8 -72 8q-20 0 -40 -2l-2 -140q76 -9 123 11q28 13 28 61z" />
    <glyph glyph-name="Q" unicode="Q" horiz-adv-x="642" 
d="M468 16q4 -9 4 -15q0 -13 -19 -14q-14 0 -81 -7q-30 -1 -48 23q-1 1 -4 5q-32 -11 -71 -11h-47q-122 0 -174 98q-22 40 -28 97q-7 215 8 346q9 48 33 81q56 79 173 70q126 8 184 -86q25 -39 33 -96q10 -143 10 -249q0 -41 -2 -71q-2 -46 -28 -99zM303 229q1 48 0 105
q-2 58 -11 153q-24 80 -74 75q-75 0 -75 -89v-245q0 -41 23 -69q24 -31 65 -31q1 0 2 1l-47 65q-3 6 -3 10q0 9 13 9h106q1 8 1 16z" />
    <glyph glyph-name="R" unicode="R" horiz-adv-x="609" 
d="M433 43q5 -38 -40 -41h-71q-36 -4 -39 22q0 12 -2 132q7 69 -46 114q-27 19 -108 19l2 -289h-96q-36 0 -39 38v630q-3 29 32 32q45 -4 162 0q147 4 205 -98q25 -43 30 -104q-2 -43 -13 -74q-26 -74 -92 -76q77 -1 99 -147zM280 487q0 50 -37 62q-30 8 -72 8q-20 0 -40 -2
l-2 -140q76 -9 123 11q28 13 28 61z" />
    <glyph glyph-name="S" unicode="S" horiz-adv-x="628" 
d="M332 497q-63 85 -127 85q-23 0 -39 -17t-16 -41q0 -66 154 -147q158 -84 158 -200q0 -31 -13 -66q-43 -121 -201 -130q-66 -5 -123 20q-42 18 -77 52q-20 20 -39 41q-10 11 -10 23q0 10 8 18q19 31 49 61q10 10 21 10q15 0 25 -21q68 -82 137 -82q28 0 46.5 19t18.5 47
q0 49 -132 126q-165 96 -165 225q0 64 39 109q46 52 136 68q18 3 37 3q102 0 199 -98q7 -7 7 -15q0 -9 -7 -16q-44 -56 -61 -75q-6 -6 -13 -6t-12 7z" />
    <glyph glyph-name="T" unicode="T" horiz-adv-x="675" 
d="M521 556h-191l-2 -44l4 -521h-82v-1v1h-30q-37 0 -40 41v212q1 321 1 310h-180v101q2 34 34 34h178q7 1 14 1h260q31 0 34 -34v-100z" />
    <glyph glyph-name="U" unicode="U" horiz-adv-x="624" 
d="M443 687l-1 -559q0 -93 -102 -129q-42 -16 -101 -19q-232 0 -232 149q0 38 -3 529q-2 14 8 24t26 8h108v-479q0 -84 83 -90q77 6 77 90v442q-2 18 8.5 28.5t31.5 7.5z" />
    <glyph glyph-name="V" unicode="V" horiz-adv-x="600" 
d="M431 646l-139 -620q-11 -42 -35 -35h-127q-6 0 -11 3q-13 7 -16 24l-109 633q-5 39 26 39h88q6 -1 11 -3q11 -7 15 -25l2 -40l56 -350q0 -11 12 -11q11 0 11 10l79 398q6 7 33 17h68q37 -3 37 -31q0 -4 -1 -9z" />
    <glyph glyph-name="W" unicode="W" horiz-adv-x="897" 
d="M727 654l-139 -618q-12 -42 -35 -35h-126q-7 0 -12 3q-11 7 -15 24l-45 192q-57 -168 -60 -182q-12 -42 -36 -35h-102q-7 0 -12 3q-12 7 -15 24l-133 631q-5 39 26 39h88q6 -1 10 -3q12 -7 15 -25l82 -389q0 -10 12 -11q11 0 11 10l56 190l-42 187q-5 39 26 39h88
q5 -1 10 -4q11 -6 15 -24l94 -389q0 -10 12 -11q11 0 11 10l79 397q6 7 33 17h68q37 -3 37 -31q0 -4 -1 -9z" />
    <glyph glyph-name="X" unicode="X" horiz-adv-x="621" 
d="M465 700l-175 -361l164 -339h-115q-6 1 -10 3q-12 7 -17 24l-89 175l-84 -174q-5 -26 -26 -28h-76q-31 0 -26 39q4 21 144 300q-151 300 -155 322q-5 39 26 39h76q6 -1 11 -4q11 -7 15 -24l95 -196l100 197q7 25 27 27h115z" />
    <glyph glyph-name="Y" unicode="Y" horiz-adv-x="614" 
d="M467 700l-174 -358h-4v-301q6 -38 -41 -41h-47q-44 0 -47 48v294h-1q-149 297 -153 319q-5 39 26 39h76q6 -1 11 -4q12 -7 15 -24l96 -197l101 198q6 25 27 27h115z" />
    <glyph glyph-name="Z" unicode="Z" horiz-adv-x="628" 
d="M468 33q-3 -33 -33 -33h-150q-7 0 -14 1h-155q-4 -1 -8 -1h-75q-31 0 -27 39q6 30 260 529l-266 -1v100q3 33 33 33l305 -2q4 1 7 1h115l-20 -42q-7 -26 -35 -72l-219 -451l282 -1v-100z" />
    <glyph glyph-name="bracketleft" unicode="[" horiz-adv-x="366" 
d="M191 -20h-11q-109 0 -155 87q-19 36 -25 87q-9 255 7 390q140 -228 193 -282l53 41q-3 91 -62 376v-113q-63 -2 -63 -79v-301q0 -33 16.5 -57.5t46.5 -30.5v-118z" />
    <glyph glyph-name="backslash" unicode="\" horiz-adv-x="444" 
d="M274 26q3 -13 -8 -22.5t-25 -8.5l-45 1q-25 1 -33 33l-156 619q-3 12 7 22t24 10h62q23 0 31 -32z" />
    <glyph glyph-name="bracketright" unicode="]" horiz-adv-x="372" 
d="M191 154q-5 -51 -25 -87q-46 -87 -155 -87h-11v118q30 6 46.5 30.5t16.5 57.5v301q0 77 -63 79v113h1q103 8 154 -62q20 -30 29 -73q16 -135 7 -390z" />
    <glyph glyph-name="underscore" unicode="_" horiz-adv-x="360" 
d="M325 14q0 -29 -21 -32t-50 -2l-250 4q-29 1 -29 30v37q0 30 23.5 32.5t53.5 1.5l244 -4q29 0 29 -30v-37z" />
    <glyph glyph-name="a" unicode="a" horiz-adv-x="603" 
d="M431 44q1 -5 1 -9q0 -28 -37 -31h-68q-32 4 -38 29q-3 10 -6 35h-147l-2 -40q-5 -26 -26 -28h-88q-31 0 -26 39q2 18 109 633q5 26 27 27h127q24 7 35 -35q7 -21 139 -620zM253 206l-38 213q0 10 -11 10q-12 0 -12 -11q-7 -71 -28 -211q-4 -27 18 -23h49q23 1 23 15
q0 3 -1 7z" />
    <glyph glyph-name="b" unicode="b" horiz-adv-x="666" 
d="M492 182q0 -99 -47 -146q-36 -36 -92 -36q-77 1 -285 0q-57 0 -61 46q0 23 -3 608q0 43 62 46q75 5 242 0q105 -3 147 -93q17 -38 20 -89q-6 -171 -86 -162q95 -25 103 -174zM307 490q-4 80 -60 80h-102l2 -157h90q70 0 70 77zM317 200q-3 81 -54 81h-112l2 -163h90
q74 0 74 82z" />
    <glyph glyph-name="c" unicode="c" horiz-adv-x="598" 
d="M441 152q-34 -162 -190 -162h-49q-125 0 -179 100q-22 42 -28 100q-7 212 8 344q10 49 34 83q58 81 177 72q117 8 180 -74q26 -35 39 -84q4 -18 -2 -28q-2 -5 -19 -10l-117 -19l-1 8q-24 82 -76 76q-76 0 -76 -91v-240q0 -43 23 -71q25 -31 67 -31q61 0 71 77l118 -21
q10 0 16 -9t4 -20z" />
    <glyph glyph-name="d" unicode="d" horiz-adv-x="656" 
d="M466 173q-22 -173 -140 -173q-75 1 -260 0q-57 0 -61 46q0 23 -3 608q0 43 62 46q74 1 230 0q88 -1 136 -92q20 -37 31 -90q19 -124 19 -184q0 -48 -14 -161zM331 367q0 48 -11 116q-5 25 -16 43q-27 44 -75 49q-45 0 -79 -1v-444q44 -1 92 -1q69 -1 80 102q9 88 9 136z
" />
    <glyph glyph-name="e" unicode="e" horiz-adv-x="588" 
d="M432 41q7 -38 -41 -41h-356q-38 0 -41 41v31v168q1 430 1 412q-7 45 47 48h345q31 0 33 -34v-101h-277v-141h181q17 -19 17 -67q0 -35 -9 -75h-185v-152h285v-89z" />
    <glyph glyph-name="f" unicode="f" horiz-adv-x="566" 
d="M418 555h-278v-141h181q17 -19 17 -67q0 -35 -9 -75h-185v-282h-112q-38 0 -41 41v31q1 55 1 168q1 431 1 412q-8 45 46 48h345q31 0 34 -34v-101z" />
    <glyph glyph-name="g" unicode="g" horiz-adv-x="629" 
d="M461 268q-1 -61 -22 -145v0q-41 -143 -185 -143h-49q-125 0 -179 100q-22 42 -28 100q-8 219 8 354q10 49 34 83q58 81 177 72q117 8 180 -74q26 -35 39 -84q4 -18 -2 -28q-2 -5 -19 -10l-117 -19l-1 8q-24 82 -76 76q-76 0 -76 -91v-250q0 -43 23 -71q25 -31 67 -31
q58 0 70 71v0l8 73h-84v87q-2 15 16 16h198q17 2 18 -18q1 -25 0 -76z" />
    <glyph glyph-name="h" unicode="h" horiz-adv-x="630" 
d="M448 57q0 -48 -4 -54q-9 -13 -64 -13h-43q-17 0 -39 13v267h-162v-277h-102q-35 -4 -37 37q-7 83 0 613v29q0 18 47 18h77q6 0 16 -3v-299h163v299h109q20 0 33 -8q6 -5 6 -31v-591z" />
    <glyph glyph-name="i" unicode="i" horiz-adv-x="317" 
d="M134 41q6 -38 -41 -41h-46q-44 0 -48 47q2 96 0 606q0 44 47 47h58q28 1 30 -35v-624z" />
    <glyph glyph-name="j" unicode="j" horiz-adv-x="606" 
d="M425 667l-1 -541q0 -93 -103 -129q-43 -15 -104 -17q-216 3 -216 142v61q0 6 17 17l104 13v-27q0 -70 85 -75q78 7 78 104v345h-259v80q0 26 8 33t23 7l333 -2q35 -4 35 -11z" />
    <glyph glyph-name="k" unicode="k" horiz-adv-x="656" 
d="M509 19q-1 -4 -2 -7q-4 -8 -14 -9l-109 -2q-6 1 -10 3q-12 5 -18 19l-198 281v-304h-103q-54 3 -46 47l-2 606q3 40 41 40h111v-275q152 219 166 250.5t40 31.5q5 0 11 -1h105q12 -1 12 -11q0 -8 -12 -24l-188 -295l206 -326q9 -9 10 -24z" />
    <glyph glyph-name="l" unicode="l" horiz-adv-x="490" 
d="M341 27q-1 -27 -16 -27q-3 0 -7 2l-268 1q-44 0 -47 47q1 96 0 604q0 43 46 46h58q28 1 30 -35v-545h204v-93z" />
    <glyph glyph-name="m" unicode="m" horiz-adv-x="871" 
d="M687 33q-2 -41 -37 -38h-88q-8 0 -11 2.5t-2 5.5v362l-117 -303q-32 -76 -58 -71h-43q-42 -8 -72 71q-10 28 -114 303v-350q1 -8 -5.5 -14.5t-17.5 -5.5h-78q-35 -3 -38 38v610q0 33 7 40t40 7q11 -2 77 0q34 1 61 -47q47 -147 156 -457q32 88 94 277q54 164 62 180
q26 48 61 47q66 -2 76 0q49 -3 49 -37q0 -5 -2 -10v-610z" />
    <glyph glyph-name="n" unicode="n" horiz-adv-x="629" 
d="M447 59q6 -63 -69 -68l-43 -1q-43 -7 -81 72q-12 27 -118 303v-370h-101q-35 -4 -37 38v610q-1 5 -1 10q0 34 48 37q10 -2 76 0q35 1 61 -47q14 -30 118 -286v330h108q36 0 39 -39v-589z" />
    <glyph glyph-name="o" unicode="o" 
d="M446 174q-6 -121 -101 -170q-39 -20 -93 -24h-49q-125 0 -179 100q-22 42 -28 100q-8 220 8 354q10 49 34 83q58 81 177 72q130 9 189 -88q25 -40 34 -98q10 -150 10 -259q0 -40 -2 -70zM306 218q1 49 0 107q-1 60 -11 157q-24 82 -76 76q-76 0 -76 -91v-250
q0 -43 23 -71q25 -31 67 -31q73 0 73 103z" />
    <glyph glyph-name="p" unicode="p" horiz-adv-x="574" 
d="M420 498q0 -96 -58 -154q-41 -40 -87 -47q-22 -3 -150 -8l2 -289h-96q-36 0 -39 38v630q-4 29 32 32q45 -4 162 0q147 4 205 -98q25 -43 29 -104zM278 487q0 50 -37 62q-30 8 -72 8q-20 0 -40 -2l-2 -140q76 -9 123 11q28 13 28 61z" />
    <glyph glyph-name="q" unicode="q" horiz-adv-x="642" 
d="M468 16q4 -9 4 -15q0 -13 -19 -14q-14 0 -81 -7q-30 -1 -48 23q-1 1 -4 5q-32 -11 -71 -11h-47q-122 0 -174 98q-22 40 -28 97q-7 215 8 346q9 48 33 81q56 79 173 70q126 8 184 -86q25 -39 33 -96q10 -143 10 -249q0 -41 -2 -71q-2 -46 -28 -99zM303 229q1 48 0 105
q-2 58 -11 153q-24 80 -74 75q-75 0 -75 -89v-245q0 -41 23 -69q24 -31 65 -31q1 0 2 1l-47 65q-3 6 -3 10q0 9 13 9h106q1 8 1 16z" />
    <glyph glyph-name="r" unicode="r" horiz-adv-x="609" 
d="M433 43q5 -38 -40 -41h-71q-36 -4 -39 22q0 12 -2 132q7 69 -46 114q-27 19 -108 19l2 -289h-96q-36 0 -39 38v630q-3 29 32 32q45 -4 162 0q147 4 205 -98q25 -43 30 -104q-2 -43 -13 -74q-26 -74 -92 -76q77 -1 99 -147zM280 487q0 50 -37 62q-30 8 -72 8q-20 0 -40 -2
l-2 -140q76 -9 123 11q28 13 28 61z" />
    <glyph glyph-name="s" unicode="s" horiz-adv-x="628" 
d="M332 497q-63 85 -127 85q-23 0 -39 -17t-16 -41q0 -66 154 -147q158 -84 158 -200q0 -31 -13 -66q-43 -121 -201 -130q-66 -5 -123 20q-42 18 -77 52q-20 20 -39 41q-10 11 -10 23q0 10 8 18q19 31 49 61q10 10 21 10q15 0 25 -21q68 -82 137 -82q28 0 46.5 19t18.5 47
q0 49 -132 126q-165 96 -165 225q0 64 39 109q46 52 136 68q18 3 37 3q102 0 199 -98q7 -7 7 -15q0 -9 -7 -16q-44 -56 -61 -75q-6 -6 -13 -6t-12 7z" />
    <glyph glyph-name="t" unicode="t" horiz-adv-x="675" 
d="M521 556h-191l-2 -44l4 -521h-82v-1v1h-30q-37 0 -40 41v212q1 321 1 310h-180v101q2 34 34 34h178q7 1 14 1h260q31 0 34 -34v-100z" />
    <glyph glyph-name="u" unicode="u" horiz-adv-x="624" 
d="M443 687l-1 -559q0 -93 -102 -129q-42 -16 -101 -19q-232 0 -232 149q0 38 -3 529q-2 14 8 24t26 8h108v-479q0 -84 83 -90q77 6 77 90v442q-2 18 8.5 28.5t31.5 7.5z" />
    <glyph glyph-name="v" unicode="v" horiz-adv-x="600" 
d="M431 646l-139 -620q-11 -42 -35 -35h-127q-6 0 -11 3q-13 7 -16 24l-109 633q-5 39 26 39h88q6 -1 11 -3q11 -7 15 -25l2 -40l56 -350q0 -11 12 -11q11 0 11 10l79 398q6 7 33 17h68q37 -3 37 -31q0 -4 -1 -9z" />
    <glyph glyph-name="w" unicode="w" horiz-adv-x="897" 
d="M727 654l-139 -618q-12 -42 -35 -35h-126q-7 0 -12 3q-11 7 -15 24l-45 192q-57 -168 -60 -182q-12 -42 -36 -35h-102q-7 0 -12 3q-12 7 -15 24l-133 631q-5 39 26 39h88q6 -1 10 -3q12 -7 15 -25l82 -389q0 -10 12 -11q11 0 11 10l56 190l-42 187q-5 39 26 39h88
q5 -1 10 -4q11 -6 15 -24l94 -389q0 -10 12 -11q11 0 11 10l79 397q6 7 33 17h68q37 -3 37 -31q0 -4 -1 -9z" />
    <glyph glyph-name="x" unicode="x" horiz-adv-x="621" 
d="M465 700l-175 -361l164 -339h-115q-6 1 -10 3q-12 7 -17 24l-89 175l-84 -174q-5 -26 -26 -28h-76q-31 0 -26 39q4 21 144 300q-151 300 -155 322q-5 39 26 39h76q6 -1 11 -4q11 -7 15 -24l95 -196l100 197q7 25 27 27h115z" />
    <glyph glyph-name="y" unicode="y" horiz-adv-x="614" 
d="M467 700l-174 -358h-4v-301q6 -38 -41 -41h-47q-44 0 -47 48v294h-1q-149 297 -153 319q-5 39 26 39h76q6 -1 11 -4q12 -7 15 -24l96 -197l101 198q6 25 27 27h115z" />
    <glyph glyph-name="z" unicode="z" horiz-adv-x="628" 
d="M468 33q-3 -33 -33 -33h-150q-7 0 -14 1h-155q-4 -1 -8 -1h-75q-31 0 -27 39q6 30 260 529l-266 -1v100q3 33 33 33l305 -2q4 1 7 1h115l-20 -42q-7 -26 -35 -72l-219 -451l282 -1v-100z" />
    <glyph glyph-name="braceleft" unicode="{" horiz-adv-x="405" 
d="M232 -20h-11q-109 0 -155 87q-20 36 -25 87q-2 43 -11 78q-22 86 -71 121q76 50 89 231q119 -249 166 -309q50 -66 53 41q2 97 -35 403v-114q-61 -1 -63 -79q-2 -40 -8 -73q-16 -78 -50 -105q48 -22 58 -162q4 -77 63 -88v-118z" />
    <glyph glyph-name="bar" unicode="|" horiz-adv-x="306" 
d="M124 658l-5 -629q-1 -13 -10.5 -23t-23.5 -10l-44 -1q-14 -1 -24 8.5t-10 22.5l-6 632q-1 32 30 32h62q31 0 31 -32z" />
    <glyph glyph-name="braceright" unicode="}" horiz-adv-x="445" 
d="M272 353q-73 -52 -83 -199q-5 -51 -24 -87q-46 -87 -155 -87h-11v118q59 11 63 88q3 40 9 72q16 75 49 90q-51 40 -58 178q-1 28 -8 44q-15 34 -55 35v114v0q110 9 158 -62q20 -30 25 -73q4 -53 14 -95q25 -103 76 -136z" />
    <glyph glyph-name=".null" horiz-adv-x="333" 
 />
    <glyph glyph-name="minus" unicode="&#xad;" horiz-adv-x="448" 
d="M267 322q0 -31 -22 -33.5t-53 -1.5l-164 4q-30 0 -30 31v52q0 30 24.5 33t55.5 2l158 -4q31 -1 31 -31v-52z" />
    <glyph glyph-name="minus" unicode="&#x2212;" horiz-adv-x="448" 
d="M267 322q0 -31 -22 -33.5t-53 -1.5l-164 4q-30 0 -30 31v52q0 30 24.5 33t55.5 2l158 -4q31 -1 31 -31v-52z" />
    <glyph glyph-name="Adieresis" unicode="&#xc4;" horiz-adv-x="603" 
d="M431 44q1 -5 1 -9q0 -28 -37 -31h-68q-32 4 -38 29q-3 10 -6 35h-147l-2 -40q-5 -26 -26 -28h-88q-31 0 -26 39q2 18 109 633q5 26 27 27h127q24 7 35 -35q7 -21 139 -620zM253 206l-38 213q0 10 -11 10q-12 0 -12 -11q-7 -71 -28 -211q-4 -27 18 -23h49q23 1 23 15
q0 3 -1 7zM384 756q0 -25 -18 -27t-43 0l-18 1q-25 1 -25 26v58q0 25 20 28q20 2 46 0l13 -1q25 -2 25 -27v-58zM114 756q0 -25 -18 -27t-43 0l-18 1q-25 1 -25 26v58q0 25 20 28q20 2 46 0l13 -1q25 -2 25 -27v-58z" />
    <glyph glyph-name="Odieresis" unicode="&#xd6;" 
d="M446 174q-6 -121 -101 -170q-39 -20 -93 -24h-49q-125 0 -179 100q-22 42 -28 100q-8 220 8 354q10 49 34 83q58 81 177 72q130 9 189 -88q25 -40 34 -98q10 -150 10 -259q0 -40 -2 -70zM306 218q1 49 0 107q-1 60 -11 157q-24 82 -76 76q-76 0 -76 -91v-250
q0 -43 23 -71q25 -31 67 -31q73 0 73 103zM394 756q0 -25 -18 -27t-43 0l-18 1q-25 1 -25 26v58q0 25 20 28q20 2 46 0l13 -1q25 -2 25 -27v-58zM124 756q0 -25 -18 -27t-43 0l-18 1q-25 1 -25 26v58q0 25 20 28q20 2 46 0l13 -1q25 -2 25 -27v-58z" />
    <glyph glyph-name="Udieresis" unicode="&#xdc;" horiz-adv-x="624" 
d="M443 687l-1 -559q0 -93 -102 -129q-42 -16 -101 -19q-232 0 -232 149q0 38 -3 529q-2 14 8 24t26 8h108v-479q0 -84 83 -90q77 6 77 90v442q-2 18 8.5 28.5t31.5 7.5zM414 756q0 -25 -18 -27t-43 0l-18 1q-25 1 -25 26v58q0 25 20 28q20 2 46 0l13 -1q25 -2 25 -27v-58z
M144 756q0 -25 -18 -27t-43 0l-18 1q-25 1 -25 26v58q0 25 20 28q20 2 46 0l13 -1q25 -2 25 -27v-58z" />
    <glyph glyph-name="adieresis" unicode="&#xe4;" horiz-adv-x="603" 
d="M431 44q1 -5 1 -9q0 -28 -37 -31h-68q-32 4 -38 29q-3 10 -6 35h-147l-2 -40q-5 -26 -26 -28h-88q-31 0 -26 39q2 18 109 633q5 26 27 27h127q24 7 35 -35q7 -21 139 -620zM253 206l-38 213q0 10 -11 10q-12 0 -12 -11q-7 -71 -28 -211q-4 -27 18 -23h49q23 1 23 15
q0 3 -1 7zM384 756q0 -25 -18 -27t-43 0l-18 1q-25 1 -25 26v58q0 25 20 28q20 2 46 0l13 -1q25 -2 25 -27v-58zM114 756q0 -25 -18 -27t-43 0l-18 1q-25 1 -25 26v58q0 25 20 28q20 2 46 0l13 -1q25 -2 25 -27v-58z" />
    <glyph glyph-name="odieresis" unicode="&#xf6;" 
d="M446 174q-6 -121 -101 -170q-39 -20 -93 -24h-49q-125 0 -179 100q-22 42 -28 100q-8 220 8 354q10 49 34 83q58 81 177 72q130 9 189 -88q25 -40 34 -98q10 -150 10 -259q0 -40 -2 -70zM306 218q1 49 0 107q-1 60 -11 157q-24 82 -76 76q-76 0 -76 -91v-250
q0 -43 23 -71q25 -31 67 -31q73 0 73 103zM394 756q0 -25 -18 -27t-43 0l-18 1q-25 1 -25 26v58q0 25 20 28q20 2 46 0l13 -1q25 -2 25 -27v-58zM124 756q0 -25 -18 -27t-43 0l-18 1q-25 1 -25 26v58q0 25 20 28q20 2 46 0l13 -1q25 -2 25 -27v-58z" />
    <glyph glyph-name="udieresis" unicode="&#xfc;" horiz-adv-x="624" 
d="M443 687l-1 -559q0 -93 -102 -129q-42 -16 -101 -19q-232 0 -232 149q0 38 -3 529q-2 14 8 24t26 8h108v-479q0 -84 83 -90q77 6 77 90v442q-2 18 8.5 28.5t31.5 7.5zM414 756q0 -25 -18 -27t-43 0l-18 1q-25 1 -25 26v58q0 25 20 28q20 2 46 0l13 -1q25 -2 25 -27v-58z
M144 756q0 -25 -18 -27t-43 0l-18 1q-25 1 -25 26v58q0 25 20 28q20 2 46 0l13 -1q25 -2 25 -27v-58z" />
    <glyph glyph-name="nonbreakingspace" unicode="&#xa0;" horiz-adv-x="333" 
 />
    </font>
</defs>
</svg>
